<svg width="41" height="40" viewBox="0 0 41 40" fill="none" xmlns="http://www.w3.org/2000/svg">
<rect x="21.5833" y="16.1245" width="2.16667" height="7.58336" transform="rotate(-90 21.5833 16.1245)" fill="#724D50"/>
<rect x="29.1667" y="18.2915" width="2.16667" height="2.16667" transform="rotate(-90 29.1667 18.2915)" fill="#724D50"/>
<rect x="29.1667" y="31.292" width="2.16667" height="2.16667" transform="rotate(-90 29.1667 31.292)" fill="#724D50"/>
<rect x="27" y="33.458" width="2.16667" height="2.16667" transform="rotate(-90 27 33.458)" fill="#724D50"/>
<rect x="18.3333" y="33.458" width="2.16667" height="4.33335" transform="rotate(-90 18.3333 33.458)" fill="#724D50"/>
<rect x="22.6667" y="35.625" width="2.16667" height="4.33335" transform="rotate(-90 22.6667 35.625)" fill="#724D50"/>
<rect x="9.66675" y="18.2915" width="2.16667" height="2.16667" transform="rotate(-90 9.66675 18.2915)" fill="#724D50"/>
<rect x="9.66675" y="31.292" width="2.16667" height="2.16667" transform="rotate(-90 9.66675 31.292)" fill="#724D50"/>
<rect x="11.8333" y="33.458" width="2.16667" height="2.16667" transform="rotate(-90 11.8333 33.458)" fill="#724D50"/>
<rect x="14" y="35.625" width="2.16667" height="4.33335" transform="rotate(-90 14 35.625)" fill="#724D50"/>
<rect x="7.5" y="29.1245" width="10.8334" height="2.16667" transform="rotate(-90 7.5 29.1245)" fill="#724D50"/>
<rect x="31.3333" y="29.1245" width="10.8334" height="2.16667" transform="rotate(-90 31.3333 29.1245)" fill="#724D50"/>
<rect x="11.8333" y="16.1245" width="2.16667" height="7.58336" transform="rotate(-90 11.8333 16.1245)" fill="#724D50"/>
<rect x="29.167" y="4.20801" width="2.16667" height="4.33335" fill="#724D50"/>
<rect x="23.7502" y="6.37402" width="2.16667" height="5.41669" transform="rotate(-90 23.7502 6.37402)" fill="#724D50"/>
<rect x="21.5833" y="8.5415" width="2.16667" height="2.16667" transform="rotate(-90 21.5833 8.5415)" fill="#724D50"/>
<rect x="19.417" y="17.208" width="8.6667" height="2.16667" transform="rotate(-90 19.417 17.208)" fill="#724D50"/>
<rect x="27.0002" y="10.708" width="2.16667" height="2.16667" transform="rotate(-90 27.0002 10.708)" fill="#724D50"/>
<rect x="21.5833" y="12.8745" width="2.16667" height="5.41669" transform="rotate(-90 21.5833 12.8745)" fill="#724D50"/>
<rect x="21.5833" y="10.708" width="2.16667" height="5.41669" transform="rotate(-90 21.5833 10.708)" fill="#BFE449"/>
<rect x="23.7502" y="8.5415" width="2.16667" height="5.41669" transform="rotate(-90 23.7502 8.5415)" fill="#BFE449"/>
<rect x="21.5833" y="16.1245" width="7.58336" height="15.1667" fill="#EA394B"/>
<rect x="11.8333" y="16.1245" width="7.58336" height="15.1667" fill="#EA394B"/>
<rect x="14" y="31.292" width="4.33335" height="2.16667" fill="#EA394B"/>
<rect x="18.3333" y="29.1245" width="4.33335" height="2.16667" fill="#EA394B"/>
<rect x="22.6667" y="31.292" width="4.33335" height="2.16667" fill="#EA394B"/>
<rect x="31.3333" y="18.2915" width="10.8334" height="21.6667" transform="rotate(90 31.3333 18.2915)" fill="#EA394B"/>
<rect x="19.417" y="19.3745" width="2.16667" height="2.16667" transform="rotate(-90 19.417 19.3745)" fill="#724D50"/>
<rect x="21.5833" y="18.2915" width="2.16667" height="2.16667" transform="rotate(-90 21.5833 18.2915)" fill="#724D50"/>
<rect x="17.25" y="18.2915" width="2.16667" height="2.16667" transform="rotate(-90 17.25 18.2915)" fill="#724D50"/>
</svg>
