<svg width="41" height="40" viewBox="0 0 41 40" fill="none" xmlns="http://www.w3.org/2000/svg">
<rect x="16.5" y="16" width="8" height="9" fill="#724D50"/>
<rect x="19.5" y="10" width="2" height="6" fill="#724D50"/>
<rect x="16.5" y="8" width="8" height="4" fill="#724D50"/>
<rect x="14.5" y="17" width="12" height="6" fill="#724D50"/>
<rect x="13.5" y="17" width="13" height="1" fill="#724D50"/>
<rect x="13.5" y="9" width="13" height="5" fill="#724D50"/>
<rect x="11.5" y="11" width="2" height="1" fill="#724D50"/>
<rect x="26.5" y="11" width="3" height="1" fill="#724D50"/>
<rect x="26.5" y="15" width="3" height="2" fill="#724D50"/>
<rect x="11.5" y="15" width="2" height="2" fill="#724D50"/>
<rect x="14.5" y="25" width="2" height="2" fill="#724D50"/>
<rect x="24.5" y="25" width="2" height="2" fill="#724D50"/>
<rect x="16.5" y="32" width="8" height="2" fill="#724D50"/>
<rect x="24.5" y="29" width="2" height="3" fill="#724D50"/>
<rect x="25.5" y="27" width="3" height="3" fill="#724D50"/>
<rect x="27.5" y="26" width="2" height="3" fill="#724D50"/>
<rect x="11.5" y="26" width="2" height="3" fill="#724D50"/>
<rect x="9.5" y="23" width="3" height="5" fill="#724D50"/>
<rect x="7.5" y="17" width="2" height="7" fill="#724D50"/>
<rect x="9.5" y="14" width="21" height="6" fill="#724D50"/>
<rect x="11.5" y="12" width="1" height="6" fill="#724D50"/>
<rect x="27.5" y="23" width="4" height="5" fill="#724D50"/>
<rect x="31.5" y="17" width="2" height="7" fill="#724D50"/>
<rect x="29.5" y="14" width="2" height="6" fill="#724D50"/>
<rect x="28.5" y="12" width="1" height="6" fill="#724D50"/>
<rect x="12.5" y="27" width="3" height="3" fill="#724D50"/>
<rect x="13.5" y="29" width="3" height="3" fill="#724D50"/>
<rect x="14.3821" y="10.2944" width="3.05882" height="6.11765" fill="white"/>
<rect x="12.0881" y="11.8237" width="7.64706" height="3.82353" fill="white"/>
<rect x="14.3821" y="12.5889" width="5.35294" height="3.82353" fill="white"/>
<rect x="14.3821" y="16.4116" width="2.29412" height="0.764706" fill="white"/>
<rect width="3.05882" height="6.11765" transform="matrix(-1 0 0 1 26.6179 10.2944)" fill="white"/>
<rect width="7.64706" height="3.82353" transform="matrix(-1 0 0 1 28.9119 11.8237)" fill="white"/>
<rect width="5.35294" height="3.82353" transform="matrix(-1 0 0 1 26.6179 12.5889)" fill="white"/>
<rect width="2.29412" height="0.764706" transform="matrix(-1 0 0 1 26.6179 16.4116)" fill="white"/>
<rect x="12.0879" y="17.1763" width="2.29412" height="8.41177" fill="white"/>
<rect x="10.2856" y="19.1426" width="4.64286" height="5.57143" fill="white"/>
<rect x="13.0713" y="22.8569" width="1.85714" height="3.71429" fill="white"/>
<rect x="13.6174" y="22.5293" width="3.05882" height="2.29412" fill="white"/>
<rect x="9.0293" y="20.2349" width="3.05882" height="3.05882" fill="white"/>
<rect width="2.29412" height="8.41177" transform="matrix(-1 0 0 1 28.9121 17.1763)" fill="white"/>
<rect width="4.64286" height="5.57143" transform="matrix(-1 0 0 1 30.7144 19.1426)" fill="white"/>
<rect width="1.85714" height="3.71429" transform="matrix(-1 0 0 1 27.9287 22.8569)" fill="white"/>
<rect width="3.05882" height="2.29412" transform="matrix(-1 0 0 1 27.3826 22.5293)" fill="white"/>
<rect width="3.05882" height="3.05882" transform="matrix(-1 0 0 1 31.9707 20.2349)" fill="white"/>
<rect x="16.5" y="25" width="8" height="7" fill="white"/>
<rect x="15.5" y="27" width="10" height="2" fill="white"/>
</svg>
