<svg width="41" height="40" viewBox="0 0 41 40" fill="none" xmlns="http://www.w3.org/2000/svg">
<path fill-rule="evenodd" clip-rule="evenodd" d="M10.5 8H18.5V10H19.5V12H21.5V10H22.5V8H30.5V10V11V12H33.5V21H29.5V25H27.5V28H23.5V32H17.5V28H13.5V25H11.5V21H7.5V12H10.5V11V10V8Z" fill="#DA4742"/>
<rect x="22.5" y="8" width="4" height="2" transform="rotate(90 22.5 8)" fill="#724D50"/>
<rect x="32.5" y="8" width="4" height="2" transform="rotate(90 32.5 8)" fill="#724D50"/>
<rect x="33.5" y="23" width="3" height="2" transform="rotate(-180 33.5 23)" fill="#724D50"/>
<rect x="27.5" y="30" width="4" height="2" transform="rotate(-180 27.5 30)" fill="#724D50"/>
<rect x="23.5" y="34" width="6" height="2" transform="rotate(-180 23.5 34)" fill="#724D50"/>
<rect x="17.5" y="30" width="4" height="2" transform="rotate(-180 17.5 30)" fill="#724D50"/>
<rect x="10.5" y="23" width="3" height="2" transform="rotate(-180 10.5 23)" fill="#724D50"/>
<rect x="35.5" y="12" width="9" height="2" transform="rotate(90 35.5 12)" fill="#724D50"/>
<rect x="10.5" y="8" width="4" height="2" transform="rotate(90 10.5 8)" fill="#724D50"/>
<rect x="11.5" y="21" width="4" height="2" transform="rotate(90 11.5 21)" fill="#724D50"/>
<rect x="13.5" y="25" width="3" height="2" transform="rotate(90 13.5 25)" fill="#724D50"/>
<rect x="17.5" y="28" width="4" height="2" transform="rotate(90 17.5 28)" fill="#724D50"/>
<rect x="31.5" y="21" width="4" height="2" transform="rotate(90 31.5 21)" fill="#724D50"/>
<rect x="29.5" y="25" width="3" height="2" transform="rotate(90 29.5 25)" fill="#724D50"/>
<rect x="25.5" y="28" width="4" height="2" transform="rotate(90 25.5 28)" fill="#724D50"/>
<rect x="7.5" y="12" width="9" height="2" transform="rotate(90 7.5 12)" fill="#724D50"/>
<rect x="30.5" y="8" width="8" height="2" transform="rotate(-180 30.5 8)" fill="#724D50"/>
<rect x="33.5" y="12" width="3" height="2" transform="rotate(-180 33.5 12)" fill="#724D50"/>
<rect x="10.5" y="12" width="3" height="2" transform="rotate(-180 10.5 12)" fill="#724D50"/>
<rect x="18.5" y="8" width="8" height="2" transform="rotate(-180 18.5 8)" fill="#724D50"/>
<rect x="20.5" y="8" width="4" height="2" transform="rotate(90 20.5 8)" fill="#724D50"/>
</svg>
